<svg viewBox="0 0 96 96" xmlns="http://www.w3.org/2000/svg" xmlns:xlink="http://www.w3.org/1999/xlink" id="Icons_Puzzle_M" overflow="hidden"><g id="Icons"><path d="M53.2 87.414 35.493 69.707C34.9553 69.1454 34.1062 69.0176 33.427 69.396 31.4603 70.4406 30.1942 72.4491 30.1 74.674 30.2433 77.7095 28.4725 80.5104 25.669 81.683 22.1045 83.1885 17.9852 82.4163 15.208 79.722L14.493 79.007C11.7197 76.155 10.9228 71.9199 12.47 68.255 13.6134 65.5052 16.3551 63.7647 19.33 63.9 21.5503 63.7934 23.5523 62.5308 24.605 60.573 24.9827 59.8935 24.8546 59.0447 24.293 58.507L6.589 40.8 19.39 27.9C20.5067 26.7602 22.2276 26.4629 23.662 27.162 26.375 28.536 28.117 31.2861 28.2 34.326 28.0868 36.4901 29.359 38.4876 31.368 39.3 34.2857 40.4928 37.6322 39.856 39.908 37.675L40.593 36.99C42.7212 34.8022 43.3361 31.5544 42.155 28.74 41.3116 26.6783 39.2542 25.3776 37.03 25.5 33.9871 25.4211 31.2328 23.6788 29.858 20.963 29.1588 19.5298 29.4548 17.81 30.593 16.693L42.8 4.589 60.5 22.289C61.0381 22.8499 61.8866 22.9776 62.566 22.6 64.5338 21.5575 65.8024 19.5508 65.9 17.326 65.7563 14.2907 67.5266 11.4897 70.33 10.317 73.8948 8.81106 78.0146 9.58328 80.792 12.278L81.506 12.993C84.2797 15.8448 85.0769 20.0799 83.53 23.745 82.389 26.4968 79.6457 28.2383 76.67 28.1 74.4476 28.1958 72.4422 29.4618 71.4 31.427 71.0224 32.1064 71.1501 32.9549 71.711 33.493L89.414 51.2 77.307 63.307C76.1909 64.4469 74.4699 64.7431 73.037 64.042 70.3229 62.6674 68.581 59.9153 68.5 56.874 68.6128 54.7104 67.3412 52.7132 65.333 51.9 62.4154 50.7059 59.0682 51.3428 56.793 53.525L56.107 54.21C53.9788 56.3978 53.3639 59.6456 54.545 62.46 55.3901 64.5203 57.4464 65.8202 59.67 65.7L59.67 65.7C62.7162 65.7378 65.486 67.4745 66.847 70.2 67.5489 71.6444 67.249 73.3759 66.102 74.5ZM34.322 67.192C35.2971 67.1935 36.2299 67.5904 36.907 68.292L53.2 84.586 64.693 73.093C65.2648 72.5473 65.3967 71.6846 65.014 70.993 63.9781 69.0184 61.9551 67.7586 59.726 67.7 56.6916 67.8391 53.8929 66.0698 52.717 63.269 51.211 59.7046 51.9832 55.585 54.678 52.808L55.393 52.093C58.245 49.3197 62.4801 48.5228 66.145 50.07 68.8946 51.2136 70.635 53.9551 70.5 56.93 70.5953 59.1539 71.8612 61.1609 73.827 62.205 74.5066 62.5824 75.3552 62.4542 75.893 61.893L86.586 51.2 70.293 34.907C69.1548 33.79 68.8588 32.0702 69.558 30.637 70.9279 27.9181 73.6834 26.1743 76.727 26.1 78.8909 26.2134 80.8882 24.941 81.7 22.932 82.8933 20.0143 82.2565 16.6675 80.075 14.392L79.39 13.707C77.2022 11.5795 73.9551 10.9646 71.141 12.145 69.0777 12.9866 67.7759 15.0451 67.9 17.27 67.8201 20.3126 66.078 23.0663 63.363 24.442 61.9301 25.1431 60.209 24.8469 59.093 23.707L42.8 7.411 32 18.11C31.4409 18.648 31.3145 19.4951 31.692 20.173 32.7344 22.1437 34.7464 23.411 36.974 23.5 40.0084 23.3609 42.8071 25.1302 43.983 27.931 45.489 31.4954 44.7168 35.615 42.022 38.392L41.307 39.107C38.4552 41.8799 34.2207 42.6767 30.556 41.13 27.8056 39.9872 26.0646 37.2453 26.2 34.27 26.1024 32.0481 24.8369 30.0436 22.873 29 22.1934 28.6226 21.3448 28.7508 20.807 29.312L9.411 40.8 25.711 57.1C26.8509 58.216 27.1471 59.937 26.446 61.37 25.0658 64.0799 22.314 65.8179 19.274 65.9 17.1116 65.7932 15.1175 67.0633 14.3 69.068 13.1067 71.9857 13.7435 75.3325 15.925 77.608L16.61 78.293C18.7981 80.4207 22.0456 81.0356 24.86 79.855 26.9227 79.0128 28.2239 76.9546 28.1 74.73 28.1795 71.6875 29.9212 68.9338 32.636 67.558 33.1672 67.3225 33.7409 67.198 34.322 67.192Z" fill="#F8CBAD"/></g></svg>